<svg id="main-logo" data-name="Main Logo" xmlns="http://www.w3.org/2000/svg" viewBox="0 0 510 567"><path d="M398.39,2.54a170.38,170.38,0,0,0-168.8,165.1h0v1.52c0,1.26-.09,2.51-.09,3.78,0,.8.08,1.59.09,2.4v49.42l-13.45-.13H172.4A170.39,170.39,0,1,0,342.83,395.06c0-1-.1-1.91-.11-2.87h.11V337.9h70.06A57.07,57.07,0,0,0,470,280.83v-56.2H356.29l-13.46.13V176.22h.07c0-.46,0-.93-.07-1.38V171A57.27,57.27,0,0,1,377,120.61a56.67,56.67,0,0,1,22.95-4.84H451A57.07,57.07,0,0,0,508,58.7V2.5ZM115.24,395.06A57.22,57.22,0,0,1,172.4,337.9h57.15v57.16a57.16,57.16,0,0,1-114.31.15Z" style="fill:#36c2db"/></svg>